<svg id="Group_208" data-name="Group 208" xmlns="http://www.w3.org/2000/svg" xmlns:xlink="http://www.w3.org/1999/xlink" width="225.617" height="149.286" viewBox="0 0 225.617 149.286">
  <defs>
    <clipPath id="clip-path">
      <path id="Clip_2" data-name="Clip 2" d="M0,0H225.617V149.286H0Z" fill="none"/>
    </clipPath>
  </defs>
  <g id="Group_3" data-name="Group 3" transform="translate(0 0)">
    <path id="Clip_2-2" data-name="Clip 2" d="M0,0H225.617V149.286H0Z" fill="none"/>
    <g id="Group_3-2" data-name="Group 3" clip-path="url(#clip-path)">
      <path id="Fill_1" data-name="Fill 1" d="M15.77,149.286s-23.83-7.492-12.9-41.8S34.58,87.978,28.574,57.974C20.654,18.409,54.193-8.5,91.065,2.461s26.99,23.139,70.321,10.872C214.21-1.62,218.666,60.594,206.414,81.26s33.444,23.645,14.569,68.026Z" transform="translate(0)" fill="#fbeeff"/>
    </g>
  </g>
  <path id="Fill_4" data-name="Fill 4" d="M0,11.989S5.908-1.088,9.212.073,0,11.989,0,11.989" transform="translate(182.648 58.826)" fill="#cde0fb"/>
  <path id="Fill_6" data-name="Fill 6" d="M0,13.079S14.2-2.494,19.723.346,16.359,6.231,12.97,7.061,0,13.079,0,13.079" transform="translate(177.765 64.275)" fill="#cde0fb"/>
  <path id="Fill_8" data-name="Fill 8" d="M41.574,39.1c5.2-3.83.26-13.972.26-13.972s-12.121-3.661-12.981-5.707,10.907.86,10.907.86c-.851-4.263-8.441-13.133-8.441-13.133S19.872,12.1,19.486,9.877s10.335-3.8,10.335-3.8C27.584,2.47,22.336.267,22.336.267c-8.134-2.175-10.2,9.658-10.2,9.658a17.89,17.89,0,0,1-9.451.524h0A13.021,13.021,0,0,0,0,10.024l.318,1.09c.287-.007.567,0,.841.018h.017c.172.019.417.048.716.086h0c.678.119,1.173.187,1.525.215h0c2.116.327,4.912.891,5.691,1.666a2.112,2.112,0,0,1,.378-.4l-.378.4C6.1,16.278,8.227,25.828,10.7,30.677s3.114,2.1,4.417-1.477-.969-9.239-.644-11.277,1.9.188,2.672,3.741-1.808,6.422-.647,12.2,11.791,6.587,11.791,6.587c-2.2-3.472-2.323-11.1-1.212-11.806s3.99,9.6,4.813,11.073,4.493,3.219,9.689-.611" transform="translate(172.881 99.151)" fill="#cde0fb"/>
  <path id="Fill_10" data-name="Fill 10" d="M12.7,15.258S5.018-1.384.722.093,12.7,15.258,12.7,15.258" transform="translate(37.116 71.904)" fill="#dfebfd"/>
  <path id="Fill_12" data-name="Fill 12" d="M28.325,16.348S9.6-3.117,2.327.433s4.435,7.357,8.9,8.393,17.1,7.522,17.1,7.522" transform="translate(26.372 78.444)" fill="#dfebfd"/>
  <path id="Fill_14" data-name="Fill 14" d="M0,8C.1,1.666,9.2.994,9.2.994s8.178,8.66,9.949,8.408S13.41.427,13.41.427c3.246-1.337,12.753.894,12.753.894s2.118,12.259,3.781,11.513S27.588,2.089,27.588,2.089C31.051,2.266,35,5.715,35,5.715c5.3,5.948-1.611,13.473-1.611,13.473a21.513,21.513,0,0,0,4.124,8.392h0a14.336,14.336,0,0,1,1.552,2.1l-.878.255q-.2-.375-.41-.715a.006.006,0,0,0,0,0l-.006-.01c-.094-.139-.229-.336-.4-.575h0c-.4-.526-.68-.92-.865-1.209l0,0C35.288,25.758,24.636,30.27,20.234,30.5s-2.876-1.661-1.106-4.52,6.62-3.65,7.825-4.919-1.023-1.542-3.759-.485-3.427,4.674-7.826,6.477S5.4,20.095,5.4,20.095c3.356.208,8.5-3.389,8.447-4.687s-8.293,1.226-9.662,1.23S-.093,14.332,0,8" transform="translate(19.535 98.061)" fill="#cde0fb"/>
  <path id="Fill_16" data-name="Fill 16" d="M67.76,102.449H2.564A2.722,2.722,0,0,1,0,99.593V2.856A2.709,2.709,0,0,1,2.661,0L70.325,3.468V99.593a2.722,2.722,0,0,1-2.564,2.856" transform="translate(45.906 46.837)" fill="#e584ff"/>
  <path id="Fill_18" data-name="Fill 18" d="M2.564,102.449h65.2a2.722,2.722,0,0,0,2.564-2.856V2.856A2.709,2.709,0,0,0,67.664,0L0,3.468V99.593a2.722,2.722,0,0,0,2.564,2.856" transform="translate(114.277 46.837)" fill="#e584ff"/>
  <path id="Fill_20" data-name="Fill 20" d="M2.6,0,.476,1.9A1.492,1.492,0,0,0,0,3.016V96.67a1.346,1.346,0,0,0,1.258,1.419h5.3a1.357,1.357,0,0,0,1.256-1.5Z" transform="translate(47.86 51.197)" fill="#aec3ff"/>
  <path id="Fill_22" data-name="Fill 22" d="M5.211,0,7.338,1.9a1.492,1.492,0,0,1,.476,1.111V96.67a1.346,1.346,0,0,1-1.258,1.419h-5.3A1.357,1.357,0,0,1,0,96.584Z" transform="translate(174.835 51.197)" fill="#aec3ff"/>
  <path id="Fill_24" data-name="Fill 24" d="M63.055,99.179H2.386A2.6,2.6,0,0,1,0,96.414V2.765A2.579,2.579,0,0,1,2.476,0L55.431,2.3c5.588.243,10.01,5.562,10.01,12.041V96.414a2.6,2.6,0,0,1-2.386,2.765" transform="translate(49.813 50.107)" fill="#fff7f0"/>
  <path id="Fill_26" data-name="Fill 26" d="M2.19,99.179H63.251a2.383,2.383,0,0,0,2.19-2.537V2.537A2.367,2.367,0,0,0,63.169,0L8.886,2.362C3.925,2.578,0,7.3,0,13.05V96.642a2.383,2.383,0,0,0,2.19,2.537" transform="translate(115.254 50.107)" fill="#fff7f0"/>
  <path id="Fill_28" data-name="Fill 28" d="M0,59.943H.414V0H0Z" transform="translate(115.047 68.635)" fill="#f9dec7"/>
  <path id="Fill_30" data-name="Fill 30" d="M3.8,4.515a.573.573,0,0,1,.072.537v0a3.2,3.2,0,0,1-.9,1.147c-.054.051-.1.1-.144.14L2.8,6.374,2.772,6.4c-.394.423-.247.522-.956,1.382-.808.979-1.36.992-1.517.9-.132-.078.141-.6.443-1.184l.044-.085.12-.235a3.233,3.233,0,0,0,.19-2.09C1.035,4.233,0,.3,0,.3L1.539,0s.444,3.128.951,3.614c.271.259.576.265.837.457l.054.041a2.127,2.127,0,0,1,.418.4" transform="translate(142.602 57.736)" fill="#ffb27d"/>
  <path id="Fill_31" data-name="Fill 31" d="M3.792.416a.482.482,0,0,1,.078.5v0A3.579,3.579,0,0,1,2.9,1.994c-.057.048-.108.093-.153.134l-.035.032-.027.025c-.423.4-.265.49-1.026,1.3C.8,4.4.2,4.411.037,4.326c-.142-.073.151-.561.476-1.11A3.666,3.666,0,0,0,2.054,2.06C2.577,1.381,2.929.506,3.285,0l.058.039a2.179,2.179,0,0,1,.449.378" transform="translate(143.579 62.095)" fill="#233862"/>
  <path id="Fill_32" data-name="Fill 32" d="M4.609,3.942c-.1.564-.774.464-1.528.238S2.5,4.217,1.43,4.066.033,3.436,0,3.245c-.028-.169.5-.224,1.074-.3l.216-.029A4.388,4.388,0,0,0,3,1.938,7.962,7.962,0,0,0,4.387,0L5.86.151s-.782,1.392-1.085,2a2.483,2.483,0,0,0-.152,1.194,2.676,2.676,0,0,1-.015.6" transform="translate(129.905 57.736)" fill="#ffb27d"/>
  <path id="Fill_33" data-name="Fill 33" d="M3.247.951A13.2,13.2,0,0,0,1.507.863C.375.747.035.377,0,.23-.029.1.532.057,1.133,0l.005.01a3.5,3.5,0,0,0,1.62.45C3.527.481,4.343.294,4.874.3a1.517,1.517,0,0,1-.016.463c-.1.435-.816.358-1.611.184" transform="translate(129.905 59.916)" fill="#233862"/>
  <path id="Fill_34" data-name="Fill 34" d="M4.884,11.4s-.1.073-.25.166a3.172,3.172,0,0,1-.656.32,2.39,2.39,0,0,1-.675.1,2.323,2.323,0,0,1-.259-.01L1.32,6.654l-.311-.962L.677,4.667.561,4.31,0,2.576S1.372-1.375,2.771.509a3.968,3.968,0,0,1,.479.973c.1.279.2.594.292.935.069.256.136.527.2.809.174.767.328,1.614.463,2.465.45,2.84.678,5.712.678,5.712" transform="translate(140.649 47.927)" fill="#233862"/>
  <path id="Fill_35" data-name="Fill 35" d="M21.189,7.629l-7.126.331A14.326,14.326,0,0,1,10.289,6.2l-.209-.114a4.081,4.081,0,0,0-.6-.3c-.542-.125-.821.851-1.28,2.051-.094.244-.194.5-.307.753a3.893,3.893,0,0,1-.434.691c-.038.05-.077.1-.118.155A73.368,73.368,0,0,1,1.7,15.258l-.125,0A3.736,3.736,0,0,1,.51,15.114a1.582,1.582,0,0,1-.346-.2A.822.822,0,0,1,0,14.752S4.858,4.26,7.374,1.4h0c.037-.042.072-.081.108-.119A2.055,2.055,0,0,1,8.2.72c.857-.3,6.4.034,6.4.034l.177-.318.3-.023.051,0,.247-.02h0l.341-.026.506-.04,1.37-.108L17.814.2,20.347,0s.115.288.271.765c.061.186.128.4.2.639.452,1.562,1.038,4.373.374,6.226" transform="translate(133.812 43.568)" fill="#2b478b"/>
  <path id="Fill_36" data-name="Fill 36" d="M9.122,7.642C7.889,6.429,7.01,6.129,6.888,4.208,6.821,3.166,5.607-.283,3.554.019a2.674,2.674,0,0,1-.518.035,1.717,1.717,0,0,0-1.043.3C1,1.023-.817,7.193.411,9.361a1.364,1.364,0,0,0,.979.726l.158.1h0c.221.143.463.3.72.468,1.451.943,3.351,2.19,4.324,2.821h0l.166.108.283.181c.114.072.18.112.186.112a3.816,3.816,0,0,0,.6.2A2.022,2.022,0,0,0,9.481,13.9,2.77,2.77,0,0,0,10,13.376c.988-1.273,1.248-3.639-.883-5.735" transform="translate(147.486 25.04)" fill="#233862"/>
  <path id="Fill_37" data-name="Fill 37" d="M.234,3.094a2.582,2.582,0,0,0,1.618.062A2.9,2.9,0,0,0,2.93,1.875C2.651,1.86,2.347,1.612,2.122,0L2,.042,0,.751S.14,1.4.23,2.012c.075.516.114,1.01,0,1.082" transform="translate(149.44 30.489)" fill="#ffb27d"/>
  <path id="Fill_38" data-name="Fill 38" d="M0,.855S.083,1.4.2,2.18A2.64,2.64,0,0,0,1.953,0Z" transform="translate(149.44 30.489)" fill="#ed975d"/>
  <path id="Fill_39" data-name="Fill 39" d="M1.387,5.449s2.749-.394,2.5-2.324S3.838-.156,2.073.014.06.976,0,1.642.665,5.5,1.387,5.449" transform="translate(148.463 26.13)" fill="#ffb27d"/>
  <path id="Fill_40" data-name="Fill 40" d="M0,.622A8.482,8.482,0,0,0,3.129,2.155a2.734,2.734,0,0,0,1.755-.231A4.453,4.453,0,0,1,3.695.5.894.894,0,0,0,2.961.039C2.054-.035.333-.076,0,.622" transform="translate(148.463 26.13)" fill="#233862"/>
  <path id="Fill_41" data-name="Fill 41" d="M.977.353A4.772,4.772,0,0,0,.442,1.4,5.381,5.381,0,0,0,.372,3.27,5.766,5.766,0,0,1,.112.46C.494-.509.977.353.977.353" transform="translate(148.463 26.13)" fill="#233862"/>
  <path id="Fill_42" data-name="Fill 42" d="M0,6.054c.046,6.335-.009,5.011.632,5.617a2.339,2.339,0,0,0,1.165.281c1.806.143,4.984-.153,5.107-.511.425-1.239.133-1.627.493-3.526.038-.2.084-.42.138-.658.3-1.3.584-1.746-.431-3.852A16.575,16.575,0,0,0,5.138,0c-2.471,1.552-2.661.23-2.661.23S-.023,2.964,0,6.054" transform="translate(147.486 32.669)" fill="#aec3ff"/>
  <path id="Fill_43" data-name="Fill 43" d="M3.907,9.209s-.11.075-.274.17a3.584,3.584,0,0,1-.719.328,2.791,2.791,0,0,1-.74.1A2.723,2.723,0,0,1,1.89,9.8L0,4.341l.554-.986L1.971.829,2.436,0c.076.263.149.54.22.829.191.786.36,1.654.508,2.526.493,2.911.743,5.854.743,5.854" transform="translate(141.626 50.107)" fill="#2b478b"/>
  <path id="Fill_44" data-name="Fill 44" d="M4.884,0S2.377.447,2.076,1.628,0,9.756,0,9.756s1.271.261,1.863-.38S3.947,3.4,3.947,3.4Z" transform="translate(145.533 32.669)" fill="#aec3ff"/>
  <path id="Fill_45" data-name="Fill 45" d="M0,6.5c1.89.139,5.215-.149,5.344-.5.445-1.206.139-1.584.516-3.432L4.967,0S5.1,2.86,4.249,3.606.786,5.034.372,5.659A2.3,2.3,0,0,0,0,6.5" transform="translate(149.44 38.118)" fill="#95b3ef"/>
  <path id="Fill_46" data-name="Fill 46" d="M2.93.285A6.625,6.625,0,0,0,1.013.035,3.962,3.962,0,0,0,.007.95C-.076,1.147.6.8.822.743a1.856,1.856,0,0,1,.7.169,2.2,2.2,0,0,0,1.257.144Z" transform="translate(148.463 42.478)" fill="#ffb27d"/>
  <path id="Fill_47" data-name="Fill 47" d="M1.464,0S3.717.174,4.489,1.4c1.087,1.727,3.219,9.067,1.965,10.034-1.413,1.089-6.4.237-6.4.237a2.54,2.54,0,0,1,.073-1.292C.361,9.96,4.121,9.309,4.3,9.116S2.153,5.305,2.156,4.722,1.464,0,1.464,0" transform="translate(151.393 32.669)" fill="#aec3ff"/>
  <path id="Fill_48" data-name="Fill 48" d="M.977,0a6.174,6.174,0,0,1-.7,1.008A.4.4,0,0,1,0,1.087L.355.238Z" transform="translate(148.463 43.568)" fill="#ffb27d"/>
  <path id="Fill_49" data-name="Fill 49" d="M.977,0,0,.959s.041.14.161.131A1.538,1.538,0,0,0,.584.857Z" transform="translate(148.463 42.478)" fill="#ffb27d"/>
  <path id="Fill_50" data-name="Fill 50" d="M10.744,6.539,2.451,6.478,0,0,8.28.061Z" transform="translate(138.696 38.118)" fill="#f99746"/>
  <path id="Fill_51" data-name="Fill 51" d="M0,0,10.744.112l0,.35L.094.351Z" transform="translate(140.649 44.426)" fill="#ed7d2b"/>
  <path id="Fill_52" data-name="Fill 52" d="M.018.541C-.054.24.1,0,.357,0a.7.7,0,0,1,.6.549c.073.3-.079.543-.339.541a.7.7,0,0,1-.6-.549" transform="translate(142.602 40.298)" fill="#fff"/>
  <path id="Fill_53" data-name="Fill 53" d="M5.6,13.079H50.073c3.093,0,5.6-2.868,5.6-6.406V6.406c0-3.538-2.508-6.406-5.6-6.406H5.6C2.508,0,0,2.868,0,6.406v.267c0,3.538,2.508,6.406,5.6,6.406" transform="translate(52.743 136.207)" fill="#2b478b"/>
  <path id="Fill_54" data-name="Fill 54" d="M.041,4.3,0,7.032a4.24,4.24,0,0,0,4,4.442l30.014.516.008-.544a5.633,5.633,0,0,1-2.788-5.028l.014-.96A5.6,5.6,0,0,1,34.185.527V.516L4.171,0A4.216,4.216,0,0,0,.041,4.3" transform="translate(83.999 136.207)" fill="#f9dec7"/>
  <path id="Fill_55" data-name="Fill 55" d="M35.658,13.079H3.678C1.616,13.079,0,10.206,0,6.539S1.616,0,3.678,0h31.98a.51.51,0,0,1,.481.535.51.51,0,0,1-.481.535H3.678C2.206,1.07.962,3.575.962,6.539s1.244,5.469,2.717,5.469h31.98a.538.538,0,0,1,0,1.07" transform="translate(83.022 136.207)" fill="#1b3770"/>
  <path id="Fill_56" data-name="Fill 56" d="M0,.107H27.348V0H0Z" transform="translate(87.906 139.421)" fill="#e8c2a3"/>
  <path id="Fill_57" data-name="Fill 57" d="M0,.1H9.767v-.1H0Z" transform="translate(104.51 140.512)" fill="#e8c2a3"/>
  <path id="Fill_58" data-name="Fill 58" d="M0,.1H17.581v-.1H0Z" transform="translate(96.696 144.871)" fill="#e8c2a3"/>
  <path id="Fill_59" data-name="Fill 59" d="M4.22,0A3.475,3.475,0,0,1,5.786,3a19.2,19.2,0,0,1,0,3.543L4.1,5.6l-1.706.94V2.926S2.328,0,0,0Z" transform="translate(86.929 139.477)" fill="#f78248"/>
  <path id="Fill_60" data-name="Fill 60" d="M3.706,9.809H38.293A3.963,3.963,0,0,0,42,5.631V4.178A3.963,3.963,0,0,0,38.293,0H3.706A3.963,3.963,0,0,0,0,4.178V5.631A3.963,3.963,0,0,0,3.706,9.809" transform="translate(50.79 126.398)" fill="#699dee"/>
  <path id="Fill_61" data-name="Fill 61" d="M.032,3.129,0,5.114a3.16,3.16,0,0,0,3.086,3.23l23.154.375.006-.4A4.054,4.054,0,0,1,24.1,4.667l.011-.7A4.05,4.05,0,0,1,26.372.383V.375L3.218,0A3.157,3.157,0,0,0,.032,3.129" transform="translate(73.255 127.488)" fill="#f9dec7"/>
  <path id="Fill_62" data-name="Fill 62" d="M26.985,9.809H2.784C1.223,9.809,0,7.655,0,4.9S1.223,0,2.784,0h24.2a.384.384,0,0,1,.364.4.384.384,0,0,1-.364.4H2.784C1.669.8.728,2.681.728,4.9s.942,4.1,2.056,4.1h24.2a.4.4,0,0,1,0,.8" transform="translate(73.255 126.398)" fill="#4b87dd"/>
  <path id="Fill_63" data-name="Fill 63" d="M0,.09H16.6V.018H0Z" transform="translate(81.069 129.614)" fill="#e8c2a3"/>
  <path id="Fill_64" data-name="Fill 64" d="M0,.09H7.814V.018H0Z" transform="translate(89.859 129.614)" fill="#e8c2a3"/>
  <path id="Fill_65" data-name="Fill 65" d="M0,.09H12.7V.018H0Z" transform="translate(83.999 132.883)" fill="#e8c2a3"/>
  <path id="Fill_66" data-name="Fill 66" d="M.724.054a12.4,12.4,0,0,1,.251,1.6,8.243,8.243,0,0,1-.32,1.579C.532,3.5.472,2.173.374,1.974s-.02.5-.089.563S.073,2.023.011,1.82.162.864.163.34.724.054.724.054" transform="translate(172.881 117.679)" fill="#ffb27d"/>
  <path id="Fill_67" data-name="Fill 67" d="M.006,2.151A1.927,1.927,0,0,1,2.9.286l.081.052c1.993,1.323,6.295,7.5,6.591,8.115s1.17,5.539,1.17,5.539-1.08.407-1.585-.015c0,0-1.751-4.666-2.01-4.9s-7-4.136-7.062-5.6C.072,3.091.042,2.626.006,2.151" transform="translate(163.114 104.601)" fill="#233862"/>
  <path id="Fill_68" data-name="Fill 68" d="M8.222,0l.569,1.981L.569,5.449,0,3.469Z" transform="translate(145.533 103.511)" fill="#f99746"/>
  <path id="Fill_69" data-name="Fill 69" d="M0,1.977l1.953.2L1.447,0Z" transform="translate(144.556 106.78)" fill="#f9ddbf"/>
  <path id="Fill_70" data-name="Fill 70" d="M.823.464l.129.622a.921.921,0,0,1-.27.934L.409,2.18,0,.212.3.039C.513-.087.748.1.823.464" transform="translate(154.323 103.511)" fill="#f9ddbf"/>
  <path id="Fill_71" data-name="Fill 71" d="M3.179.37s.877.781.706,1.337-.963.925-1.07,1.6S2.28,4.36,1.895,4.36H.058s-.284-.478.4-.621.943-.941.9-1.682A12.73,12.73,0,0,1,1.424.329L2.879,0Z" transform="translate(171.904 144.926)" fill="#1f4075"/>
  <path id="Fill_72" data-name="Fill 72" d="M4.854.566S5,2.028,4.639,2.18L0,2.172s0-.456.745-.558S2.8,1.141,3.021.312,4.854.566,4.854.566" transform="translate(161.16 146.016)" fill="#1f4075"/>
  <path id="Fill_73" data-name="Fill 73" d="M0,.458s.245,3.3.532,7.277c.391,5.4.861,12.024.908,13.279.08,2.18.4,5.668.4,5.668a2.4,2.4,0,0,0,2.3.479A61.23,61.23,0,0,0,5.893,16.915l.018-.26C6.273,11.292,6.837,0,6.837,0Z" transform="translate(162.137 119.859)" fill="#f99746"/>
  <path id="Fill_74" data-name="Fill 74" d="M0,.442S.245,3.636.532,7.475l5.36,8.873.018-.251C6.273,10.914,6.837,0,6.837,0Z" transform="translate(162.137 120.949)" fill="#ef7e29"/>
  <path id="Fill_75" data-name="Fill 75" d="M0,2.1S4,13.713,6.627,19.173s3.451,6.984,3.451,6.984,1.506-.7,1.643-1.175c0,0-1.005-10.541-2.766-13.11A21.419,21.419,0,0,1,6.737,4.539C6.682,3.016,6.381,0,6.381,0Z" transform="translate(163.114 118.769)" fill="#f99746"/>
  <path id="Fill_76" data-name="Fill 76" d="M4.884,4.169S1.8,5.912,0,5.331a4.414,4.414,0,0,1,1.194-1.11c-.069-.4-.124-.747-.156-1.042C.95,2.5.943,2.112.943,2.112L2.124,1.033,3.244,0a5.32,5.32,0,0,0,1.64,4.169" transform="translate(162.137 100.241)" fill="#ffb27d"/>
  <path id="Fill_77" data-name="Fill 77" d="M8.34,16.555A10.573,10.573,0,0,1,5,18.159a23.773,23.773,0,0,1-3.768.366.225.225,0,0,1-.171-.048c-.046-.026-.3-1.97-.564-4.423-.011-.1-.024-.2-.028-.3l0-.033c-.1-.959-.189-1.966-.266-2.976C.139,9.961.088,9.184.052,8.454.007,7.541-.011,6.7.007,6.012c.008-.315.025-.6.05-.845A6.328,6.328,0,0,1,1.4,1.948l.478-.607A2.414,2.414,0,0,0,3.533.869C4.118.439,4.75-.069,4.87.008c.9.547,1.622,2.011,2.142,3.882a23.538,23.538,0,0,1,.674,3.594c.047.4.087.814.118,1.224.006.076.011.152.016.227.07,1.122.185,2.173.312,3.112.171,1.266.366,2.327.5,3.074.069.38.122.674.153.885.028.184-.3.447-.449.549" transform="translate(161.16 103.511)" fill="#2b478b"/>
  <path id="Fill_78" data-name="Fill 78" d="M1.953.051A4.1,4.1,0,0,1,.079,2.18C.006,1.489,0,1.1,0,1.1L.986,0Z" transform="translate(163.114 101.331)" fill="#ed985f"/>
  <path id="Fill_79" data-name="Fill 79" d="M.593,5.4s2.832.474,3.063-1.56S4.407.5,2.609.109.37.444.15,1.1-.138,5.226.593,5.4" transform="translate(162.137 96.972)" fill="#ffb27d"/>
  <path id="Fill_80" data-name="Fill 80" d="M5.642.9c.025-.03.085-.054.218-.064A.551.551,0,0,0,5.61.774.656.656,0,0,0,5.153.2a.392.392,0,0,1,.2.277C4.975.119,4.179-.134,1.99.077-.894.355.095,2.138.473,2.345s1.308-.4,2.005-.359S3.329,3,3.568,3.135s.141-.106.458-.253.358.369.272.706.363.772.363.772L5.1,3.885a4.74,4.74,0,0,0,.6-2.872L5.642.9" transform="translate(161.16 95.882)" fill="#2c3a64"/>
  <path id="Fill_81" data-name="Fill 81" d="M4.884.143A12.953,12.953,0,0,1,.055,2.18C.008,1.365-.012.616.008,0Z" transform="translate(160.184 108.96)" fill="#233862"/>
  <path id="Fill_82" data-name="Fill 82" d="M1.953,1.419C1.925,1.382,1.562-.1.933.006.522.076-.149.366.029,1.026.1,1.286,1.35,2.18,1.35,2.18Z" transform="translate(148.463 105.691)" fill="#ffb27d"/>
  <path id="Fill_83" data-name="Fill 83" d="M14.739.843a2.169,2.169,0,0,1-.19,3.628l-.084.039c-2.081.939-8.275,1.043-9.681.87C3.259,5.192,0,3.086,0,3.086S.287,1.906.879,1.72A32.765,32.765,0,0,0,5.645,2.9C6.483,2.957,12.575-.7,13.7.121c.3.218.662.47,1.037.722" transform="translate(149.44 104.601)" fill="#2b478b"/>
  <path id="Fill_84" data-name="Fill 84" d="M14.651,15.582,0,16.348V.766L14.651,0Z" transform="translate(119.161 124.219)" fill="#f9dec7"/>
  <path id="Fill_85" data-name="Fill 85" d="M0,8.719,4.069,0,7.061,4.551,8.555,2.577l3.166,5.475Z" transform="translate(121.114 130.758)" fill="#fff7f0"/>
  <path id="Fill_86" data-name="Fill 86" d="M0,1.143A1.109,1.109,0,0,1,.977,0a.972.972,0,0,1,.977,1.035A1.109,1.109,0,0,1,.977,2.178.972.972,0,0,1,0,1.143" transform="translate(126.975 128.578)" fill="#fff7f0"/>
  <path id="Fill_87" data-name="Fill 87" d="M20.511,22.854,0,23.977V1.123L20.511,0Z" transform="translate(157.253 54.466)" fill="#f9dec7"/>
  <path id="Fill_88" data-name="Fill 88" d="M0,13.079,6.1,0l4.488,6.827,2.241-2.962,4.749,8.213Z" transform="translate(158.23 62.095)" fill="#fff7f0"/>
  <path id="Fill_89" data-name="Fill 89" d="M0,1.715A1.663,1.663,0,0,1,1.465,0,1.457,1.457,0,0,1,2.93,1.555,1.663,1.663,0,0,1,1.465,3.268,1.457,1.457,0,0,1,0,1.715" transform="translate(167.997 58.826)" fill="#fff7f0"/>
  <path id="Fill_90" data-name="Fill 90" d="M20.511,1.182,0,2.18V1L20.511,0Z" transform="translate(119.161 94.792)" fill="#f99746"/>
  <path id="Fill_91" data-name="Fill 91" d="M10.744.572,0,1.09V.518L10.744,0Z" transform="translate(119.161 98.061)" fill="#f9dec7"/>
  <path id="Fill_92" data-name="Fill 92" d="M7.814.665,0,1.09V.425L7.814,0Z" transform="translate(119.161 100.241)" fill="#f9dec7"/>
  <path id="Fill_93" data-name="Fill 93" d="M7.814.665,0,1.09V.425L7.814,0Z" transform="translate(128.928 100.241)" fill="#f9dec7"/>
  <path id="Fill_94" data-name="Fill 94" d="M9.767.613,0,1.09V.477L9.767,0Z" transform="translate(136.742 99.151)" fill="#f9dec7"/>
  <path id="Fill_95" data-name="Fill 95" d="M6.837.7,0,1.09v-.7L6.837,0Z" transform="translate(119.161 102.421)" fill="#f9dec7"/>
  <path id="Fill_96" data-name="Fill 96" d="M6.837.7,0,1.09v-.7L6.837,0Z" transform="translate(126.975 102.421)" fill="#f9dec7"/>
  <path id="Fill_97" data-name="Fill 97" d="M7.814.65,0,1.09V.44L7.814,0Z" transform="translate(134.789 101.331)" fill="#f9dec7"/>
  <path id="Fill_98" data-name="Fill 98" d="M20.511,1.182,0,2.18V1L20.511,0Z" transform="translate(119.161 79.534)" fill="#f99746"/>
  <path id="Fill_99" data-name="Fill 99" d="M10.744.572,0,1.09V.518L10.744,0Z" transform="translate(119.161 83.893)" fill="#f9dec7"/>
  <path id="Fill_100" data-name="Fill 100" d="M10.744.572,0,1.09V.518L10.744,0Z" transform="translate(132.835 82.803)" fill="#f9dec7"/>
  <path id="Fill_101" data-name="Fill 101" d="M7.814.665,0,1.09V.425L7.814,0Z" transform="translate(119.161 86.073)" fill="#f9dec7"/>
  <path id="Fill_102" data-name="Fill 102" d="M7.814.665,0,1.09V.425L7.814,0Z" transform="translate(128.928 84.983)" fill="#f9dec7"/>
  <path id="Fill_103" data-name="Fill 103" d="M9.767.613,0,1.09V.477L9.767,0Z" transform="translate(136.742 84.983)" fill="#f9dec7"/>
  <path id="Fill_104" data-name="Fill 104" d="M6.837.7,0,1.09v-.7L6.837,0Z" transform="translate(119.161 88.253)" fill="#f9dec7"/>
  <path id="Fill_105" data-name="Fill 105" d="M6.837.7,0,1.09v-.7L6.837,0Z" transform="translate(126.975 87.163)" fill="#f9dec7"/>
  <path id="Fill_106" data-name="Fill 106" d="M7.814.65,0,1.09V.44L7.814,0Z" transform="translate(134.789 87.163)" fill="#f9dec7"/>
  <path id="Fill_107" data-name="Fill 107" d="M14.651,1.182,0,2.18V1L14.651,0Z" transform="translate(156.277 81.713)" fill="#f99746"/>
  <path id="Fill_108" data-name="Fill 108" d="M7.814.572,0,1.09V.518L7.814,0Z" transform="translate(156.277 83.893)" fill="#f9dec7"/>
  <path id="Fill_109" data-name="Fill 109" d="M7.814.572,0,1.09V.518L7.814,0Z" transform="translate(166.044 83.893)" fill="#f9dec7"/>
  <path id="Fill_110" data-name="Fill 110" d="M5.86.665,0,1.09V.425L5.86,0Z" transform="translate(156.277 86.073)" fill="#f9dec7"/>
  <path id="Fill_111" data-name="Fill 111" d="M5.86.665,0,1.09V.425L5.86,0Z" transform="translate(163.114 86.073)" fill="#f9dec7"/>
  <path id="Fill_112" data-name="Fill 112" d="M6.837.613,0,1.09V.477L6.837,0Z" transform="translate(168.974 84.983)" fill="#f9dec7"/>
  <path id="Fill_113" data-name="Fill 113" d="M4.884.7,0,1.09v-.7L4.884,0Z" transform="translate(156.277 87.163)" fill="#f9dec7"/>
  <path id="Fill_114" data-name="Fill 114" d="M4.884.7,0,1.09v-.7L4.884,0Z" transform="translate(162.137 87.163)" fill="#f9dec7"/>
  <path id="Fill_115" data-name="Fill 115" d="M5.86.65,0,1.09V.44L5.86,0Z" transform="translate(167.021 87.163)" fill="#f9dec7"/>
  <path id="Fill_116" data-name="Fill 116" d="M20.511,1.182,0,2.18V1L20.511,0Z" transform="translate(119.161 110.05)" fill="#f99746"/>
  <path id="Fill_117" data-name="Fill 117" d="M10.744.572,0,1.09V.518L10.744,0Z" transform="translate(119.161 113.32)" fill="#f9dec7"/>
  <path id="Fill_118" data-name="Fill 118" d="M10.744.572,0,1.09V.518L10.744,0Z" transform="translate(132.835 113.32)" fill="#f9dec7"/>
  <path id="Fill_119" data-name="Fill 119" d="M7.814.665,0,1.09V.425L7.814,0Z" transform="translate(119.161 115.5)" fill="#f9dec7"/>
  <path id="Fill_120" data-name="Fill 120" d="M7.814.665,0,1.09V.425L7.814,0Z" transform="translate(128.928 115.5)" fill="#f9dec7"/>
  <path id="Fill_121" data-name="Fill 121" d="M9.767.613,0,1.09V.477L9.767,0Z" transform="translate(136.742 114.41)" fill="#f9dec7"/>
  <path id="Fill_122" data-name="Fill 122" d="M6.837.7,0,1.09v-.7L6.837,0Z" transform="translate(119.161 117.679)" fill="#f9dec7"/>
  <path id="Fill_123" data-name="Fill 123" d="M6.837.7,0,1.09v-.7L6.837,0Z" transform="translate(126.975 117.679)" fill="#f9dec7"/>
  <path id="Fill_124" data-name="Fill 124" d="M7.814.65,0,1.09V.44L7.814,0Z" transform="translate(134.789 117.679)" fill="#f9dec7"/>
  <path id="Fill_125" data-name="Fill 125" d="M15.628,1.32,0,2.18V.86L15.628,0Z" transform="translate(137.719 131.848)" fill="#f99746"/>
  <path id="Fill_126" data-name="Fill 126" d="M8.791.642,0,1.09V.448L8.791,0Z" transform="translate(137.719 135.117)" fill="#f9dec7"/>
  <path id="Fill_127" data-name="Fill 127" d="M8.791.642,0,1.09V.448L8.791,0Z" transform="translate(147.486 135.117)" fill="#f9dec7"/>
  <path id="Fill_128" data-name="Fill 128" d="M5.86.73,0,1.09V.36L5.86,0Z" transform="translate(137.719 137.297)" fill="#f9dec7"/>
  <path id="Fill_129" data-name="Fill 129" d="M5.86.729,0,1.09V.36L5.86,0Z" transform="translate(144.556 137.297)" fill="#f9dec7"/>
  <path id="Fill_130" data-name="Fill 130" d="M6.837.68,0,1.09V.41L6.837,0Z" transform="translate(151.393 136.207)" fill="#f9dec7"/>
  <path id="Fill_131" data-name="Fill 131" d="M4.884.763,0,1.09V.327L4.884,0Z" transform="translate(137.719 139.477)" fill="#f9dec7"/>
  <path id="Fill_132" data-name="Fill 132" d="M4.884.763,0,1.09V.327L4.884,0Z" transform="translate(143.579 139.477)" fill="#f9dec7"/>
  <path id="Fill_133" data-name="Fill 133" d="M5.86.716,0,1.09V.374L5.86,0Z" transform="translate(149.44 138.387)" fill="#f9dec7"/>
  <path id="Fill_134" data-name="Fill 134" d="M23.442,27.247,0,26.292V0L23.442.955Z" transform="translate(84.975 58.826)" fill="#f9dec7"/>
  <path id="Fill_135" data-name="Fill 135" d="M0,13.377,6.782,0l4.986,7.8,2.49-2.938,5.276,9.31Z" transform="translate(85.952 68.635)" fill="#fff7f0"/>
  <path id="Fill_136" data-name="Fill 136" d="M0,2.1A1.977,1.977,0,0,1,1.954,0,2.179,2.179,0,0,1,3.907,2.259a1.977,1.977,0,0,1-1.953,2.1A2.179,2.179,0,0,1,0,2.1" transform="translate(95.719 64.275)" fill="#fff7f0"/>
  <path id="Fill_137" data-name="Fill 137" d="M20.511,2.18,0,1.343V0L20.511.837Z" transform="translate(83.999 93.702)" fill="#f99746"/>
  <path id="Fill_138" data-name="Fill 138" d="M10.744,1.09,0,.653V0L10.744.437Z" transform="translate(84.975 96.972)" fill="#f9dec7"/>
  <path id="Fill_139" data-name="Fill 139" d="M7.814,1.09,0,.74V0L7.814.35Z" transform="translate(83.999 99.151)" fill="#f9dec7"/>
  <path id="Fill_140" data-name="Fill 140" d="M7.814,1.09,0,.74V0L7.814.35Z" transform="translate(93.766 100.241)" fill="#f9dec7"/>
  <path id="Fill_141" data-name="Fill 141" d="M9.767,1.09,0,.692V0L9.767.4Z" transform="translate(102.557 100.241)" fill="#f9dec7"/>
  <path id="Fill_142" data-name="Fill 142" d="M6.837,1.09,0,.773V0L6.837.317Z" transform="translate(83.999 101.331)" fill="#f9dec7"/>
  <path id="Fill_143" data-name="Fill 143" d="M6.837,1.09,0,.773V0L6.837.317Z" transform="translate(91.813 101.331)" fill="#f9dec7"/>
  <path id="Fill_144" data-name="Fill 144" d="M7.814,1.09,0,.727V0L7.814.363Z" transform="translate(99.626 102.421)" fill="#f9dec7"/>
  <path id="Fill_145" data-name="Fill 145" d="M20.511,2.18,0,1.343V0L20.511.837Z" transform="translate(83.999 108.96)" fill="#f99746"/>
  <path id="Fill_146" data-name="Fill 146" d="M10.744,1.09,0,.653V0L10.744.437Z" transform="translate(84.975 112.23)" fill="#f9dec7"/>
  <path id="Fill_147" data-name="Fill 147" d="M10.744,1.09,0,.653V0L10.744.437Z" transform="translate(97.673 113.32)" fill="#f9dec7"/>
  <path id="Fill_148" data-name="Fill 148" d="M7.814,1.09,0,.74V0L7.814.35Z" transform="translate(83.999 114.41)" fill="#f9dec7"/>
  <path id="Fill_149" data-name="Fill 149" d="M7.814,1.09,0,.74V0L7.814.35Z" transform="translate(93.766 115.5)" fill="#f9dec7"/>
  <path id="Fill_150" data-name="Fill 150" d="M9.767,1.09,0,.692V0L9.767.4Z" transform="translate(102.557 115.5)" fill="#f9dec7"/>
  <path id="Fill_151" data-name="Fill 151" d="M6.837,1.09,0,.773V0L6.837.317Z" transform="translate(83.999 116.589)" fill="#f9dec7"/>
  <path id="Fill_152" data-name="Fill 152" d="M6.837,1.09,0,.773V0L6.837.317Z" transform="translate(91.813 116.589)" fill="#f9dec7"/>
  <path id="Fill_153" data-name="Fill 153" d="M7.814,1.09,0,.727V0L7.814.363Z" transform="translate(99.626 117.679)" fill="#f9dec7"/>
  <path id="Fill_154" data-name="Fill 154" d="M20.511,2.18,0,1.343V0L20.511.837Z" transform="translate(54.697 54.466)" fill="#f99746"/>
  <path id="Fill_155" data-name="Fill 155" d="M10.744,1.09,0,.653V0L10.744.437Z" transform="translate(54.697 57.736)" fill="#f9dec7"/>
  <path id="Fill_156" data-name="Fill 156" d="M10.744,1.09,0,.653V0L10.744.437Z" transform="translate(68.371 57.736)" fill="#f9dec7"/>
  <path id="Fill_157" data-name="Fill 157" d="M7.814,1.09,0,.74V0L7.814.35Z" transform="translate(54.697 59.916)" fill="#f9dec7"/>
  <path id="Fill_158" data-name="Fill 158" d="M7.814,1.09,0,.74V0L7.814.35Z" transform="translate(64.464 59.916)" fill="#f9dec7"/>
  <path id="Fill_159" data-name="Fill 159" d="M9.767,1.09,0,.692V0L9.767.4Z" transform="translate(73.255 61.006)" fill="#f9dec7"/>
  <path id="Fill_160" data-name="Fill 160" d="M6.837,1.09,0,.773V0L6.837.317Z" transform="translate(54.697 62.095)" fill="#f9dec7"/>
  <path id="Fill_161" data-name="Fill 161" d="M6.837,1.09,0,.773V0L6.837.317Z" transform="translate(62.511 62.095)" fill="#f9dec7"/>
  <path id="Fill_162" data-name="Fill 162" d="M7.814,1.09,0,.727V0L7.814.363Z" transform="translate(71.301 63.185)" fill="#f9dec7"/>
  <path id="Fill_163" data-name="Fill 163" d="M0,10.9v0L1.744.454,3.614,0,9.767,8.527l-2.119.515L6.314,7.134l-3.9.946L2.067,10.4,0,10.9ZM3.231,2.723h0L2.717,6.075l2.448-.6L3.231,2.723Z" transform="translate(63.487 29.399)" fill="#e584ff"/>
  <path id="Fill_164" data-name="Fill 164" d="M.026,4.905C.288,1.927,2.493-.289,5.346.031A4.6,4.6,0,0,1,8.791,2.139L7.43,3.589A3.162,3.162,0,0,0,5.145,2.154C3.58,1.979,2.323,3.319,2.162,5.144,2,6.94,2.973,8.56,4.565,8.738a3.135,3.135,0,0,0,2.549-.954L8.276,9.5a4.386,4.386,0,0,1-3.964,1.354C1.579,10.55-.241,7.943.026,4.905" transform="translate(75.208 18.5)" fill="#e584ff"/>
  <path id="Fill_165" data-name="Fill 165" d="M1.461,10.9h0L0,.829,4.2.073A4.473,4.473,0,0,1,4.987,0,2.656,2.656,0,0,1,6.7.54,2.429,2.429,0,0,1,7.571,2.17,2.5,2.5,0,0,1,6.7,4.555a2.367,2.367,0,0,1,2.057,2.2,2.59,2.59,0,0,1-.627,2.239,4.179,4.179,0,0,1-2.36,1.133l-4.3.773Zm4.147-4.97h0a2.908,2.908,0,0,0-.509.05l-2.3.413.322,2.216,2.366-.425a1.778,1.778,0,0,0,1-.456,1.05,1.05,0,0,0,.251-.92A.984.984,0,0,0,5.608,5.93ZM4.595,2.03a2.322,2.322,0,0,0-.408.039l-1.966.352.309,2.13,1.836-.33a1.635,1.635,0,0,0,1.142-.605,1.057,1.057,0,0,0,.134-.747.944.944,0,0,0-1.048-.84Z" transform="translate(102.557 20.68)" fill="#e584ff"/>
  <path id="Fill_166" data-name="Fill 166" d="M.02,4.979C.241,2,2.447-.248,5.216.022A4.789,4.789,0,0,1,8.7,1.811L7.3,3.441a3.242,3.242,0,0,0-2.311-1.3C3.53,2,2.257,3.371,2.123,5.184c-.142,1.918.9,3.439,2.522,3.6a2.88,2.88,0,0,0,1.94-.445l.111-1.5-2.024-.2L4.82,4.647l3.97.387L8.453,9.59a5.421,5.421,0,0,1-4.028,1.282C1.577,10.595-.212,8.111.02,4.979" transform="translate(86.929 32.669)" fill="#e584ff"/>
  <path id="Fill_167" data-name="Fill 167" d="M7.521,10.9h0L6.72,9.74a4.67,4.67,0,0,1-1.75.338,4.953,4.953,0,0,1-1.082-.121,4.888,4.888,0,0,1-3.2-2.313A5.24,5.24,0,0,1,.108,3.972,4.787,4.787,0,0,1,4.772,0,5.083,5.083,0,0,1,5.88.125a4.887,4.887,0,0,1,3.2,2.312A5.241,5.241,0,0,1,9.659,6.11,4.973,4.973,0,0,1,8.317,8.663L9.075,9.7,7.522,10.9ZM4.867,1.98A2.822,2.822,0,0,0,2.175,4.435a3.279,3.279,0,0,0,.355,2.3A2.719,2.719,0,0,0,4.3,8.034a2.911,2.911,0,0,0,.636.072,2.727,2.727,0,0,0,.6-.066l-1.2-1.646L5.889,5.181,7.082,6.925a3.382,3.382,0,0,0,.511-1.277,3.278,3.278,0,0,0-.354-2.3,2.72,2.72,0,0,0-1.77-1.3A2.762,2.762,0,0,0,4.867,1.98Z" transform="translate(191.439 39.208)" fill="#e584ff"/>
  <path id="Fill_168" data-name="Fill 168" d="M0,1.171,1.741.9,6.48,6.276,5.764.286,7.628,0,8.791,9.728l-1.606.247-4.9-5.546.739,6.184L1.163,10.9Z" transform="translate(177.765 26.13)" fill="#e584ff"/>
  <path id="Fill_169" data-name="Fill 169" d="M0,0,2.125.236,3.357,6.979,6.016.641l1.7.189L9.1,7.618l2.5-6.327,2.073.231L9.653,10.9l-1.725-.192L6.507,4.166,3.859,10.254l-1.725-.192Z" transform="translate(118.184 32.669)" fill="#e584ff"/>
  <path id="Fill_170" data-name="Fill 170" d="M0,2.725a2.639,2.639,0,0,0,.02.332A2.723,2.723,0,0,0,.783,4.652a2.644,2.644,0,0,0,1.892.8H40.3a2.7,2.7,0,0,0,2.676-2.724A2.739,2.739,0,0,0,42.192.8,2.641,2.641,0,0,0,40.3,0H2.675A2.7,2.7,0,0,0,0,2.725" transform="translate(24.418 142.746)" fill="#f78248"/>
  <path id="Fill_171" data-name="Fill 171" d="M.409,1.09H13.265c.225,0,.409-.245.409-.545S13.49,0,13.265,0H.409C.184,0,0,.245,0,.545s.184.545.409.545" transform="translate(26.372 141.657)" fill="#f78248"/>
  <path id="Fill_172" data-name="Fill 172" d="M0,.462H.977V0H0Z" transform="translate(28.325 142.515)" fill="#ea642f"/>
  <path id="Fill_173" data-name="Fill 173" d="M0,0A2.183,2.183,0,0,0,.434.478a2.817,2.817,0,0,0,1.79.612H9.767V0Z" transform="translate(24.418 147.106)" fill="#ea642f"/>
  <path id="Fill_174" data-name="Fill 174" d="M42.976,1.927v1.6a1.967,1.967,0,0,1-.066.505,1.9,1.9,0,0,1-1.825,1.421H1.891A1.9,1.9,0,0,1,.066,4.028,1.968,1.968,0,0,1,0,3.523v-1.6A1.909,1.909,0,0,1,1.891,0H41.085a1.909,1.909,0,0,1,1.891,1.927" transform="translate(29.302 142.746)" fill="#f99746"/>
  <path id="Fill_175" data-name="Fill 175" d="M42.976,0a1.881,1.881,0,0,1-1.831,1.09H1.831A1.881,1.881,0,0,1,0,0Z" transform="translate(29.302 147.106)" fill="#ef873a"/>
  <path id="Fill_176" data-name="Fill 176" d="M0,2.725a3.127,3.127,0,0,0,.743,2.1l.03.033a1.765,1.765,0,0,0,1.282.595c.758,0,2.635-1.215,3.8-2.021.58-.4.983-.7.983-.7s-.4-.3-.983-.7C4.691,1.215,2.813,0,2.056,0a1.61,1.61,0,0,0-.629.129A2.084,2.084,0,0,0,.56.856,3.1,3.1,0,0,0,.04,2.185a.157.157,0,0,0,0,.018A3.578,3.578,0,0,0,0,2.725" transform="translate(68.371 142.746)" fill="#cde0fb"/>
  <path id="Fill_177" data-name="Fill 177" d="M0,.653A4.367,4.367,0,0,0,.781,3.27L6.837.641.04,0A5.289,5.289,0,0,0,0,.653" transform="translate(68.371 144.926)" fill="#a6c7ed"/>
  <path id="Fill_178" data-name="Fill 178" d="M0,.661,5.86,2.18.883,0A2.086,2.086,0,0,0,0,.661" transform="translate(69.348 143.836)" fill="#e3f0ff"/>
  <path id="Fill_179" data-name="Fill 179" d="M0,.545a.6.6,0,0,0,.27.545C.687.778.977.545.977.545S.687.312.27,0A.6.6,0,0,0,0,.545" transform="translate(74.231 144.926)" fill="#f99746"/>
  <path id="Fill_180" data-name="Fill 180" d="M.351,56.674h0a.68.68,0,0,0,.608-.49L16.584.5a.357.357,0,0,0-.331-.5.681.681,0,0,0-.608.49L.02,56.177a.357.357,0,0,0,.331.5" transform="translate(55.674 92.612)" fill="#233862"/>
  <path id="Fill_181" data-name="Fill 181" d="M.351,56.674h0a.681.681,0,0,0,.608-.49L16.584.5a.357.357,0,0,0-.331-.5.681.681,0,0,0-.608.49L.02,56.177a.357.357,0,0,0,.331.5" transform="translate(42.976 92.612)" fill="#233862"/>
  <path id="Fill_182" data-name="Fill 182" d="M.334,1l12.743.092a.659.659,0,0,0,.578-.5c.072-.274-.069-.5-.315-.5L.6,0A.659.659,0,0,0,.019.5C-.053.77.088,1,.334,1" transform="translate(56.65 99.151)" fill="#233862"/>
  <path id="Fill_183" data-name="Fill 183" d="M.334,1l12.743.092a.659.659,0,0,0,.578-.5c.072-.275-.069-.5-.315-.5L.6,0A.659.659,0,0,0,.019.5C-.053.77.088,1,.334,1" transform="translate(53.72 108.96)" fill="#233862"/>
  <path id="Fill_184" data-name="Fill 184" d="M.334,1l12.743.092a.659.659,0,0,0,.578-.5c.072-.274-.069-.5-.315-.5L.6,0A.659.659,0,0,0,.019.5C-.053.77.088,1,.334,1" transform="translate(50.79 117.679)" fill="#233862"/>
  <path id="Fill_185" data-name="Fill 185" d="M.334,1l12.743.092a.659.659,0,0,0,.578-.5c.072-.274-.069-.5-.315-.5L.6,0A.659.659,0,0,0,.019.5C-.053.77.088,1,.334,1" transform="translate(47.86 129.668)" fill="#233862"/>
  <path id="Fill_186" data-name="Fill 186" d="M.334,1l12.743.092a.659.659,0,0,0,.578-.5c.072-.274-.069-.5-.315-.5L.6,0A.659.659,0,0,0,.019.5C-.054.77.088,1,.334,1" transform="translate(44.93 140.567)" fill="#233862"/>
  <path id="Fill_187" data-name="Fill 187" d="M0,1.258s.136-.41.224-.6S.689-.11.753.019s.32,1,.184,1.239.009.666-.669.922Z" transform="translate(70.325 79.534)" fill="#ffb27d"/>
  <path id="Fill_188" data-name="Fill 188" d="M0,0S3.9,3.372,5.415,3.06a29.171,29.171,0,0,0,3.011-.892l.365.967s-1.635,2.3-3.34,2.315a9.454,9.454,0,0,1-4.633-1.2Z" transform="translate(60.557 78.444)" fill="#ef7e29"/>
  <path id="Fill_189" data-name="Fill 189" d="M0,.524S.123,2.153.508,2.177c.051,0,1.951,0,1.951,0l2.425-.012s-.016-.479-.725-.58A3.4,3.4,0,0,1,1.834.311C1.383-.5,0,.524,0,.524" transform="translate(53.72 115.5)" fill="#1c3d72"/>
  <path id="Fill_190" data-name="Fill 190" d="M0,25.9a4.386,4.386,0,0,0,1.247.26,4.16,4.16,0,0,0,1.164-.185,38.916,38.916,0,0,1,.857-4.536c.38-1.635.923-3.738,1.7-6.351A93.845,93.845,0,0,0,7.809,3.239c0-.021,0-.032,0-.032l-.007,0L1.239,0s.812,9.953-.224,13.773A17.608,17.608,0,0,0,.639,15.6,81.376,81.376,0,0,0,0,25.9" transform="translate(53.72 91.522)" fill="#2b478b"/>
  <path id="Fill_191" data-name="Fill 191" d="M2.271,20.708c.382-1.58.928-3.611,1.705-6.135A87.668,87.668,0,0,0,6.837,3.129c0-.012,0-.022,0-.034L.231,0S1.048,9.615.006,13.305c-.146.516,2.265,7.4,2.265,7.4" transform="translate(54.697 91.522)" fill="#233862"/>
  <path id="Fill_192" data-name="Fill 192" d="M0,.524S.123,2.153.508,2.177c.051,0,1.951,0,1.951,0l2.425-.012s-.016-.479-.725-.58A3.4,3.4,0,0,1,1.834.311C1.383-.5,0,.524,0,.524" transform="translate(58.604 115.5)" fill="#1c3d72"/>
  <path id="Fill_193" data-name="Fill 193" d="M6.835,0a119.748,119.748,0,0,1-.9,14.492c-.983,7.987-.65,11.378-.65,11.378a6.032,6.032,0,0,1-.948.276,3.8,3.8,0,0,1-1.407-.186s-1.407-7.99-1-11.988S0,.254,0,.254Z" transform="translate(55.674 91.522)" fill="#2b478b"/>
  <path id="Fill_194" data-name="Fill 194" d="M0,3.372l1.38.988,1.257-.388A3.536,3.536,0,0,0,2.93,2.326c0-.593-.049-1.1-.049-1.1L1.019.334.325,0c0,.012.054.623.062.712A5.6,5.6,0,0,1,0,3.372" transform="translate(57.627 74.084)" fill="#ffb27d"/>
  <path id="Fill_195" data-name="Fill 195" d="M7.788,16.374C6.253,17.982.442,17.712.084,15.94S.474.856,3.1.02c.544-.174,3.454.847,3.454.847a21.334,21.334,0,0,1,.756,2.945c.058.321.228,3.723.355,6.905.059,1.488.109,2.929.135,3.984a12.457,12.457,0,0,1-.009,1.672" transform="translate(54.697 76.264)" fill="#f99746"/>
  <path id="Fill_196" data-name="Fill 196" d="M.042.444A4.435,4.435,0,0,0,1.953,2.18c0-.649-.039-1.2-.039-1.2L.435,0C.108-.006-.092.1.042.444" transform="translate(58.604 74.084)" fill="#fca56b"/>
  <path id="Fill_197" data-name="Fill 197" d="M3.586,5.2S1.014,6.19.54,4.212s-1.126-3.184.5-3.9S3.158.24,3.447.853s.8,4.043.139,4.351" transform="translate(57.627 68.635)" fill="#ffb27d"/>
  <path id="Fill_198" data-name="Fill 198" d="M4.633,1.53s-.17,2.022-.572,1.934-.844-.275-.785.334-.391,1.654-.97,1.652C1.063,5.444-.287,2.126.053,1.5c.981-1.815,6-2.182,4.579.033" transform="translate(56.65 67.545)" fill="#163560"/>
  <path id="Fill_199" data-name="Fill 199" d="M3.1,1.149A12.392,12.392,0,0,0,.583.006C.323.112,0,1.09,0,1.09L3.907,2.18A2.289,2.289,0,0,0,3.1,1.149" transform="translate(57.627 75.174)" fill="#ef7e29"/>
  <path id="Fill_200" data-name="Fill 200" d="M12.456,1.184,1.065,12.846c-.223.229-.5.3-.626.162l-.385-.444c-.121-.139-.037-.441.186-.669L11.632.233c.223-.229.5-.3.626-.162l.385.444c.121.14.037.441-.186.669" transform="translate(61.534 86.073)" fill="#1f4d84"/>
  <path id="Fill_201" data-name="Fill 201" d="M5.86.987,1.03,6.3c-.216.237-.488.313-.6.168L.053,6c-.117-.145-.036-.457.18-.695L5.064,0Z" transform="translate(60.557 92.612)" fill="#f78248"/>
  <path id="Fill_202" data-name="Fill 202" d="M8.788,19.618h0a8.289,8.289,0,0,1-6.021-2.664A10.038,10.038,0,0,1,.381,12.671,10.961,10.961,0,0,1,.213,7.655,10.213,10.213,0,0,1,2.388,3.087,8.782,8.782,0,0,1,5.361.774,7.982,7.982,0,0,1,8.791,0a8.29,8.29,0,0,1,6.022,2.665c.047.049.093.1.138.148a10.322,10.322,0,0,1,2.627,6.8,10.409,10.409,0,0,1-2.387,6.921,8.786,8.786,0,0,1-2.973,2.313A7.982,7.982,0,0,1,8.788,19.618ZM8.79.774a7.652,7.652,0,0,0-5.9,2.843A9.8,9.8,0,0,0,3.243,16.39a7.632,7.632,0,0,0,5.545,2.454,7.347,7.347,0,0,0,1.875-.244A7.915,7.915,0,0,0,14.687,16a9.586,9.586,0,0,0,2.2-6.466,9.465,9.465,0,0,0-2.545-6.3A7.778,7.778,0,0,0,10.178.907,7.325,7.325,0,0,0,8.79.774Z" transform="translate(70.325 69.725)" fill="#1f4d84"/>
  <path id="Fill_203" data-name="Fill 203" d="M13.5,14.693A7.64,7.64,0,0,1,9.621,17.2,7.252,7.252,0,0,1,2.46,15.069,9.446,9.446,0,0,1,2.123,2.744,7.329,7.329,0,0,1,9.153.128a7.5,7.5,0,0,1,4.015,2.24A9.446,9.446,0,0,1,13.5,14.693" transform="translate(71.301 70.815)" fill="#b3cff9"/>
  <path id="Fill_204" data-name="Fill 204" d="M5.86,10.9C-.52,6.23.011,0,.011,0A15.512,15.512,0,0,1,5.718,6.927c.062,1.484.115,2.92.142,3.971" transform="translate(56.65 80.623)" fill="#ef7e29"/>
  <path id="Fill_205" data-name="Fill 205" d="M.575.6A1.446,1.446,0,0,0,1.188,0s.144.016-.024.5C1.15.545,1.119.65,1.1.724c-.01.03,0,.066.025.068a2.026,2.026,0,0,1,.768.025c.052.017.067.214.065.3a1.1,1.1,0,0,1-.1.52c-.061.127-.23.263-.606.5a1.215,1.215,0,0,1-.938-.187L0,1.727.1.821.172.847C.3.888.447.651.575.6" transform="translate(68.371 88.253)" fill="#f99746"/>
  <path id="Fill_206" data-name="Fill 206" d="M1.922,0S-3.292,1.147,3.456,9.868c1.079,1.395,6.911,3.211,6.911,3.211s.591-.581.293-1.052c0,0-4.015-3.367-4.9-3.9-.4-.241-1.542-5.374-2.19-6.611A2.977,2.977,0,0,0,1.922,0" transform="translate(56.65 77.354)" fill="#f99746"/>
  <path id="Fill_207" data-name="Fill 207" d="M0,1.054A1.888,1.888,0,0,0,.282.641,2.019,2.019,0,0,1,.746.009.184.184,0,0,1,.976.144.511.511,0,0,1,.86.418C.731.611.752.874.708.961.6,1.179,0,1.054,0,1.054" transform="translate(70.325 79.534)" fill="#ffb27d"/>
</svg>
